<?xml version="1.0" encoding="UTF-8" standalone="no"?>
<svg
   width="128pt"
   height="128pt"
   version="1.1"
   viewBox="0 0 128 128"
   id="svg5"
   sodipodi:docname="text_filter.svg"
   inkscape:version="1.3.2 (091e20ef0f, 2023-11-25, custom)"
   xmlns:inkscape="http://www.inkscape.org/namespaces/inkscape"
   xmlns:sodipodi="http://sodipodi.sourceforge.net/DTD/sodipodi-0.dtd"
   xmlns="http://www.w3.org/2000/svg"
   xmlns:svg="http://www.w3.org/2000/svg">
  <defs
     id="defs5" />
  <sodipodi:namedview
     id="namedview5"
     pagecolor="#ffffff"
     bordercolor="#000000"
     borderopacity="0.25"
     inkscape:showpageshadow="2"
     inkscape:pageopacity="0.0"
     inkscape:pagecheckerboard="0"
     inkscape:deskcolor="#d1d1d1"
     inkscape:document-units="pt"
     showguides="true"
     inkscape:zoom="1.6552099"
     inkscape:cx="220.21376"
     inkscape:cy="101.79978"
     inkscape:window-width="1920"
     inkscape:window-height="1012"
     inkscape:window-x="0"
     inkscape:window-y="32"
     inkscape:window-maximized="1"
     inkscape:current-layer="g5" />
  <g
     fill="#dfdfdf"
     id="g5">
    <g
       id="g18"
       transform="translate(-0.03344199,14.831293)">
      <path
         d="m 0.94886397,54.764801 v 0.141235 l 7.84103913,9.391092 -0.090479,0.108307 0.090479,0.110283 -7.84103913,9.389166 v 0.29988 H 13.654807 V 54.764808 Z"
         style="stroke-width:1.17474"
         id="path10" />
      <path
         d="m 85.893191,13.719898 -44.223592,0.01354 c -3.652316,0 -6.579171,3.498063 -6.579171,7.878151 0,4.373421 2.921288,7.880086 6.579171,7.880086 h 3.837309 c 2.375446,0 4.75016,-0.654476 6.57917,-2.190095 1.82887,-1.529022 4.021151,-2.404849 6.396597,-2.404849 h 0.730301 v 8.754577 c -2.559446,0.654338 -4.383421,3.284273 -4.383421,6.562545 v 3.939075 h -4.934379 c -4.020314,0 -7.310439,3.286109 -8.403306,7.659529 l -13.820782,-0.0096 c -0.449021,-1.623909 -1.751374,-2.845962 -3.34775,-2.845962 h -5.787472 c -1.977663,0 -3.527095,1.857285 -3.527095,4.225411 V 76.1725 c 0,2.368127 1.549432,4.225413 3.527095,4.225413 h 5.787472 c 1.752126,0 3.16362,-1.460602 3.464081,-3.439921 h 13.88218 c 0.914463,4.373422 4.382992,7.659524 8.403306,7.659524 h 27.774051 c 4.020316,0 7.310439,-3.286102 8.403307,-7.659524 h 13.950047 c 0.30045,1.979319 1.71195,3.439921 3.46407,3.439921 h 5.78586 c 1.97766,0 3.52871,-1.857286 3.52871,-4.225413 V 53.017813 c 0,-2.197882 -1.55105,-4.060962 -3.52871,-4.060962 h -5.78586 c -1.56842,0 -2.85424,1.177382 -3.32513,2.842092 H 86.072534 c -1.098477,-4.593778 -4.389452,-7.65762 -8.409768,-7.65762 h -4.934378 v -3.94101 c 0,-3.285108 -1.829544,-5.908225 -4.383421,-6.562546 v -8.752641 h 0.368382 c 2.375446,0 4.750159,0.652541 6.579171,2.18816 1.828869,1.529024 4.205149,2.404848 6.396594,2.404848 h 4.204077 c 3.652313,0 6.579171,-3.499997 6.579171,-7.880085 0,-4.373421 -2.92129,-7.878151 -6.579171,-7.878151 z M 49.690095,53.791535 c 2.26507,0 4.02265,1.450444 4.02265,3.319953 v 2.701136 c 0,1.869396 -1.75744,3.319953 -4.02265,3.319953 -2.265069,0 -4.024873,-1.450443 -4.024873,-3.319953 v -2.701136 c 0,-1.869394 1.759665,-3.319953 4.024873,-3.319953 z m 13.83676,0 c 2.26521,0 4.022651,1.450444 4.022651,3.319953 v 2.701136 c 0,1.869396 -1.757441,3.319953 -4.022651,3.319953 -2.265209,0 -4.024875,-1.450443 -4.024875,-3.319953 v -2.701136 c 0,-1.869394 1.759666,-3.319953 4.024875,-3.319953 z m 14.090399,0 c 2.265068,0 4.022648,1.450444 4.022648,3.319953 v 2.701136 c 0,1.869396 -1.757441,3.319953 -4.022648,3.319953 -2.265072,0 -4.024875,-1.450443 -4.024875,-3.319953 v -2.701136 c 0,-1.869394 1.759664,-3.319953 4.024875,-3.319953 z M 49.182815,65.395152 h 29.186459 c 2.265072,0 4.02265,2.10443 4.02265,4.816877 0.0078,2.7031 -1.758433,4.819539 -4.015975,4.819539 H 49.182815 c -2.26507,0 -4.024876,-2.107093 -4.024876,-4.819539 0,-2.712286 1.759669,-4.816877 4.024876,-4.816877 z"
         style="stroke-width:1.56204"
         id="path12"
         sodipodi:nodetypes="ccssscsccscsccssssssccssccssssssccscsccscssscssssssssssssssssssssssscssss" />
      <path
         d="m 121.93321,58.296599 v 2.609928 H 114.383 v 6.957227 h 7.55021 v 2.770509 l 0.0323,0.03869 5.15251,-6.169798 z"
         style="stroke-width:0.601602"
         id="path18"
         sodipodi:nodetypes="ccccccccc" />
    </g>
  </g>
</svg>
